<?xml version="1.0" encoding="utf-8"?>
<!-- Generator: Adobe Illustrator 26.5.0, SVG Export Plug-In . SVG Version: 6.00 Build 0)  -->
<svg version="1.1" id="레이어_1" xmlns="http://www.w3.org/2000/svg" xmlns:xlink="http://www.w3.org/1999/xlink" x="0px"
	 y="0px" viewBox="0 0 300 300" style="enable-background:new 0 0 300 300;" xml:space="preserve">
<style type="text/css">
	.st0{fill:#828282;}
</style>
<g>
	<path class="st0" d="M68,260l38.8-220c1.2-6.6,7.5-12,14.1-12h0c6.6,0,11.1,5.4,9.9,12L92,260c-1.2,6.6-7.5,12-14.1,12h0
		C71.3,272,66.9,266.6,68,260z"/>
	<path class="st0" d="M169.2,260L208,40c1.2-6.6,7.5-12,14.1-12h0c6.6,0,11.1,5.4,9.9,12l-38.8,220c-1.2,6.6-7.5,12-14.1,12h0
		C172.4,272,168,266.6,169.2,260z"/>
</g>
<g>
	<path class="st0" d="M260,212.6l-220,0c-6.6,0-12-5.4-12-12v0c0-6.6,5.4-12,12-12l220,0c6.6,0,12,5.4,12,12v0
		C272,207.2,266.6,212.6,260,212.6z"/>
	<path class="st0" d="M260,111.4l-220,0c-6.6,0-12-5.4-12-12v0c0-6.6,5.4-12,12-12l220,0c6.6,0,12,5.4,12,12v0
		C272,106,266.6,111.4,260,111.4z"/>
</g>
</svg>
