<?xml version="1.0" encoding="utf-8"?>
<!-- Generator: Adobe Illustrator 26.4.1, SVG Export Plug-In . SVG Version: 6.00 Build 0)  -->
<svg version="1.1" id="레이어_1" xmlns="http://www.w3.org/2000/svg" xmlns:xlink="http://www.w3.org/1999/xlink" x="0px"
	 y="0px" viewBox="0 0 300 300" style="enable-background:new 0 0 300 300;" xml:space="preserve">
<style type="text/css">
	.st0{fill:#828282;}
</style>
<g>
	<path class="st0" d="M294.5,176.3l-35.2-35.2c-0.6-0.8-1.3-1.5-2.1-2.1l-99.9-99.9c-2-2-4.6-3-7.2-2.9c-2.6,0-5.2,0.9-7.2,2.9
		L42.9,139c-0.8,0.6-1.5,1.3-2.1,2.1L5.5,176.3c-3.9,3.9-3.9,10.2,0,14.1l2.7,2.7c3.9,3.9,10.2,3.9,14.1,0l16.5-16.5v77.2
		c0,5.5,4.5,10,10,10h3.8c5.5,0,10-4.5,10-10v-101L150,65.5l87.4,87.4v101c0,5.5,4.5,10,10,10h3.8c5.5,0,10-4.5,10-10v-77.2
		l16.5,16.5c3.9,3.9,10.2,3.9,14.1,0l2.7-2.7C298.4,186.5,298.4,180.2,294.5,176.3z"/>
	<path class="st0" d="M187.3,154.2c-0.5-0.5-0.9-0.9-1.5-1.2c-1.6-1.1-3.5-1.7-5.6-1.7l0,0l0,0h-3.8l0,0h-52.9l0,0h-3.8
		c-5.5,0-10,4.5-10,10v92.6c0,5.5,4.5,10,10,10h3.8c5.5,0,10-4.5,10-10v-78.8h32.9v78.8c0,5.5,4.5,10,10,10h3.8c5.5,0,10-4.5,10-10
		v-88.8l0,0v-3.8C190.2,158.5,189.1,156,187.3,154.2z"/>
</g>
</svg>
