<?xml version="1.0" encoding="utf-8"?>
<!-- Generator: Adobe Illustrator 26.4.1, SVG Export Plug-In . SVG Version: 6.00 Build 0)  -->
<svg version="1.1" id="레이어_1" xmlns="http://www.w3.org/2000/svg" xmlns:xlink="http://www.w3.org/1999/xlink" x="0px"
	 y="0px" viewBox="0 0 300 300" style="enable-background:new 0 0 300 300;" xml:space="preserve">
<style type="text/css">
	.st0{fill:#828282;}
</style>
<g>
	<path class="st0" d="M190.9,248H60.2V52h130.7c6.6,0,12-5.4,12-12s-5.4-12-12-12H48.2c-6.6,0-12,5.4-12,12v220c0,6.6,5.4,12,12,12
		h142.7c6.6,0,12-5.4,12-12S197.5,248,190.9,248z"/>
	<path class="st0" d="M259.7,138H127.3l40-40c4.7-4.7,4.7-12.3,0-17s-12.3-4.7-17,0l-60.5,60.5c-4.7,4.7-4.7,12.3,0,17l60.5,60.5
		c4.7,4.7,12.3,4.7,17,0s4.7-12.3,0-17l-40-40h132.4c6.6,0,12-5.4,12-12S266.3,138,259.7,138z"/>
</g>
</svg>
