<?xml version="1.0" encoding="utf-8"?>
<!-- Generator: Adobe Illustrator 26.4.1, SVG Export Plug-In . SVG Version: 6.00 Build 0)  -->
<svg version="1.1" id="레이어_1" xmlns="http://www.w3.org/2000/svg" xmlns:xlink="http://www.w3.org/1999/xlink" x="0px"
	 y="0px" viewBox="0 0 300 300" style="enable-background:new 0 0 300 300;" xml:space="preserve">
<style type="text/css">
	.st0{fill:#828282;}
	.st1{fill:none;stroke:#828282;stroke-width:19;stroke-miterlimit:10;}
</style>
<path class="st0" d="M217.7,142h-59.8V82.3c0-4.4-3.6-8-8-8l0,0c-4.4,0-8,3.6-8,8V142H82.3c-4.4,0-8,3.6-8,8s3.6,8,8,8H142v59.8
	c0,4.4,3.6,8,8,8l0,0c4.4,0,8-3.6,8-8V158h59.8c4.4,0,8-3.6,8-8S222.1,142,217.7,142z"/>
<circle class="st1" cx="150" cy="150" r="113.8"/>
</svg>
