<?xml version="1.0" encoding="UTF-8"?><svg id="_레이어_2" xmlns="http://www.w3.org/2000/svg" viewBox="0 0 1024 1024"><defs><style>.cls-1{fill:#fff;stroke-linejoin:round;}.cls-1,.cls-2,.cls-3,.cls-4{stroke-width:25px;}.cls-1,.cls-2,.cls-3,.cls-4,.cls-5,.cls-6{stroke:#000;stroke-linecap:round;}.cls-2{fill:#cabfb2;}.cls-2,.cls-3,.cls-4,.cls-5,.cls-6{stroke-miterlimit:10;}.cls-3{fill:#edede9;}.cls-4,.cls-5,.cls-6{fill:none;}.cls-5{stroke-width:10px;}.cls-6{stroke-width:5px;}</style></defs><rect class="cls-3" x="198.88" y="79.44" width="681.61" height="865.11" rx="45.06" ry="45.06"/><path class="cls-2" d="M254.27,815.4H880.49v73.76c0,30.57-24.82,55.39-55.39,55.39H254.27c-30.57,0-55.39-24.82-55.39-55.39v-18.38c0-30.57,24.82-55.39,55.39-55.39Z"/><line class="cls-4" x1="280.48" y1="879.98" x2="880.49" y2="879.98"/><path class="cls-1" d="M262.67,293.41h0c-20.92-18.62-53.9-18.62-74.82,0h0c-21.23,0-38.45-16-38.45-35.75h0c0-19.74,17.21-35.75,38.45-35.75h0c20.92-18.62,53.9-18.62,74.82,0h0c21.23,0,38.45,16,38.45,35.75h0c0,19.74-17.21,35.75-38.45,35.75Z"/><path class="cls-1" d="M262.67,498.77h0c-20.92-18.62-53.9-18.62-74.82,0h0c-21.23,0-38.45-16-38.45-35.75h0c0-19.74,17.21-35.75,38.45-35.75h0c20.92-18.62,53.9-18.62,74.82,0h0c21.23,0,38.45,16,38.45,35.75h0c0,19.74-17.21,35.75-38.45,35.75Z"/><path class="cls-1" d="M256.77,704.13h0c-20.92-18.62-53.9-18.62-74.82,0h0c-21.23,0-38.45-16-38.45-35.75h0c0-19.74,17.21-35.75,38.45-35.75h0c20.92-18.62,53.9-18.62,74.82,0h0c21.23,0,38.45,16,38.45,35.75h0c0,19.74-17.21,35.75-38.45,35.75Z"/><line class="cls-5" x1="722.86" y1="361.29" x2="407" y2="361.29"/><path class="cls-6" d="M450.67,319.32c18.77-41.76,26.82-54.41,29.52-53.45,5.26,1.85-9.82,55.34-2.47,57.97,6.24,2.24,21.39-34.79,33.3-32.07,9.42,2.15,8.64,27.29,17.27,28.37,8.48,1.06,14.05-22.62,24.67-22.2,8.32,.33,8.12,14.98,19.74,20.97,15.79,8.15,27.91-12.86,55.51-11.1,19.78,1.26,23.85,12.71,48.11,13.57,11.34,.4,20.77-1.74,27.14-3.7"/><path class="cls-2" d="M769.7,262.81l-52.43-47.46-52.43,47.46c-1.24,1.12-2.99,.03-2.99-1.87V79.44h110.84v181.5c0,1.9-1.75,3-2.99,1.87Z"/></svg>